P3
4 4
255
240 220 210 240 220 210 240 220 210 240 220 210
240 220 210 180 40 40 180 40 40 240 220 210
240 220 210 180 40 40 120 30 30 240 220 210
240 220 210 240 220 210 240 220 210 240 220 210
